<?xml version="1.0" encoding="UTF-8"?><svg id="Ebene_1" xmlns="http://www.w3.org/2000/svg" viewBox="0 0 1170 775"><defs><style>.cls-1{fill:#1d1d1b;}</style></defs><path class="cls-1" d="M255.56,411.66v-164.42h36.56v164.42h-36.56Z"/><path class="cls-1" d="M431.82,411.66l-60.03-164.42h42.12l40.13,120.47h.66l41.46-120.47h40.8l-60.7,164.42h-44.44Z"/><path class="cls-1" d="M623.54,411.66v-164.42h39.79v164.42h-39.79Z"/><path class="cls-1" d="M810.25,247.24v15.17c13.93-12.96,30.84-19.61,49.75-19.61,44.11,0,72.3,33.2,72.3,84.75s-29.84,88.53-74.95,88.53c-18.57,0-33.5-6.32-47.1-19.92v69.25h-39.8v-218.18h39.8ZM810.25,294.35v69.88c11.94,12.98,24.21,18.98,38.81,18.98,26.85,0,43.45-20.55,43.45-54.39s-15.93-53.12-43.13-53.12c-14.59,0-28.19,6.32-39.13,18.65Z"/><path class="cls-1" d="M260.1,526.41c-4.4,0-7.66-3.17-7.66-7.48s3.26-7.48,7.66-7.48,7.66,3.17,7.66,7.48-3.26,7.48-7.66,7.48ZM253.5,576.66v-45.76h13.2v45.76h-13.2Z"/><path class="cls-1" d="M283.6,576.66v-45.76h13.02v4.31c3.7-3.7,8.1-5.54,13.11-5.54,9.59,0,15.4,6.51,15.4,17.25v29.74h-13.2v-27.9c0-5.19-2.38-8.01-6.78-8.01-2.99,0-5.98,1.41-8.36,4.05v31.85h-13.2Z"/><path class="cls-1" d="M359.01,529.67c5.81,0,11.88,1.85,17.51,5.28l-5.63,9.42c-4.14-2.9-8.27-4.49-11.53-4.49-3.08,0-5.19,1.41-5.19,3.61,0,7.04,23.23,3.17,23.23,19.1,0,9.15-7.57,15.31-18.74,15.31-6.69,0-13.73-2.2-19.8-6.16l5.63-9.42c5.02,3.43,10.03,5.37,14.08,5.37,3.43,0,5.63-1.41,5.63-3.7,0-7.22-23.23-3.52-23.23-19.27,0-8.89,7.39-15.05,18.04-15.05Z"/><path class="cls-1" d="M388.67,530.9h7.57v-12.41l13.2-2.55v14.96h11.09v9.86h-11.09v20.15c0,3.61,1.67,5.37,5.1,5.37,1.76,0,3.96-.44,5.54-1.06l1.5,10.03c-4.05,1.41-7.92,2.11-11.35,2.11-9.06,0-13.99-4.84-13.99-13.9v-22.7h-7.57v-9.86Z"/><path class="cls-1" d="M442.08,526.41c-4.4,0-7.66-3.17-7.66-7.48s3.26-7.48,7.66-7.48,7.66,3.17,7.66,7.48-3.26,7.48-7.66,7.48ZM435.48,576.66v-45.76h13.2v45.76h-13.2Z"/><path class="cls-1" d="M462.06,530.9h7.57v-12.41l13.2-2.55v14.96h11.09v9.86h-11.09v20.15c0,3.61,1.67,5.37,5.1,5.37,1.76,0,3.96-.44,5.54-1.06l1.5,10.03c-4.05,1.41-7.92,2.11-11.35,2.11-9.06,0-13.99-4.84-13.99-13.9v-22.7h-7.57v-9.86Z"/><path class="cls-1" d="M550.06,530.9v45.76h-11.44l-.7-5.1c-4.05,4.31-8.62,6.34-13.99,6.34-9.59,0-15.4-6.51-15.4-17.25v-29.74h13.2v27.9c0,5.19,2.38,8.01,6.78,8.01,2.9,0,5.9-1.41,8.36-3.96v-31.94h13.2Z"/><path class="cls-1" d="M563.08,530.9h7.57v-12.41l13.2-2.55v14.96h11.09v9.86h-11.09v20.15c0,3.61,1.67,5.37,5.1,5.37,1.76,0,3.96-.44,5.54-1.06l1.5,10.03c-4.05,1.41-7.92,2.11-11.35,2.11-9.06,0-13.99-4.84-13.99-13.9v-22.7h-7.57v-9.86Z"/></svg>